<?xml version="1.0" encoding="UTF-8"?>
<svg id="Capa_1" data-name="Capa 1" xmlns="http://www.w3.org/2000/svg" viewBox="0 0 1080 1080">
  <defs>
    <style>
      .cls-1 {
        fill: #fecf10;
      }
    </style>
  </defs>
  <path class="cls-1" d="m662.03,479.88c-5.01,16.33-10.04,32.71-15,48.85-52.98-7.44-87.82-19.84-97.88-35.21.79-3.69,1.53-8.12,2.69-12.43,5.45-20.33,11.01-40.64,16.06-59.23,123.54,34.01,245.75,67.65,369.72,101.77-9.82,23.57-7.5,55.19-29.12,78.88-32.18-9.72-61.65-18.62-93.36-28.2,3.76-14.6,8.16-31.68,12.54-48.71-55.86-15.41-110.2-30.41-165.67-45.72Zm-24.85-12.81c-15.39-4.53-27.58-8.12-41.95-12.35-2.48,7.01-4.66,13.19-5.91,16.74,15.71,5.37,28.21,9.64,41.94,14.33,2.06-6.51,3.85-12.16,5.92-18.71Z"/>
  <path class="cls-1" d="m740.55,256.87c47.81-41.67,125.16-22.47,134.23,57.55,24.96,1.55,48.69,7.16,63.66,30.32,13.47,20.82,15.1,33.4,7.85,65.51,5.71,14.89,12.74,30.7-.88,47.26-1.04-20.94-.86-42.01-20.95-55-11.35-7.34-23.37-9.93-36.91-6.33-2.25,13.99-4.53,28.13-6.8,42.26-2,.17-4,.34-6,.51,1.91-30.99-1.71-60.33-24.19-82.91-7.73-7.76-17.26-13.73-28.49-22.49-1.8,28.07-9.11,48.97-39.96,60.34,18.08-20.41,30.71-37.89,19.84-61.67-8.52-18.64-22.93-26.93-43.59-26.91,4.23-12.18-2.87-20.08-10.61-27.38-18.58-17.55-50.01-22.69-73.95-10.85-24.25,11.99-37.62,32.26-38.3,59.41-.23,9.31,2.7,18.68,4.7,31.27,39.28-26.96,75.95-30.82,111.72.16-41.77-20.82-79.72-12.54-114.4,17.17-4.3-13.57-8.61-24.11-10.86-35.08-2.38-11.58-2.8-23.57-4.09-35.53-25.25-2.17-38.44,8.32-47.67,39.35,2.83,3.76,6.05,8.05,10.92,14.52-9.49-2.34-16.11-3.73-22.58-5.62-25.13-7.3-46.81-.94-63.01,19.01-16.29,20.06-17.33,42.59-4.79,65.33,1.79,3.24,3.64,6.45,6.03,10.67-22.18-14.36-30.51-41.26-21.73-67.32,10.95-32.49,37.48-46.4,78.45-42.24,9.07-12.54,15.44-27.37,26.69-35.23,11.41-7.97,27.64-9.05,44.2-13.85,23.23-40.42,62.59-55.41,111.48-32.23Zm30.48,40.05c19.18,1.91,35.64,11.25,46.11,27.46,13.03,5.53,24.69,10.48,36.36,15.43,11.35-33,1.73-62.36-26.05-80.38-25.46-16.51-56.64-14.65-78.28,4.39,7.01,10.62,13.98,21.18,21.85,33.1Zm170.57,100.38c1.88-42.3-28-69.68-71.15-62.36-1.94,5.44-4.1,11.54-5.97,16.78,7.67,13.56,14.55,25.73,19.14,33.85,21.39,4.33,39.17,7.93,57.97,11.73Z"/>
  <path class="cls-1" d="m757.92,596.93c-6.08-.54-12.65-1.11-21.85-1.92-14.71,55-29.45,110.09-44.95,168.02-12.05-4.37-22.31-8.09-33.1-12,15.83-53.9,31.85-108.47,47.98-163.41-9.66-4.89-15.36-7.78-23.31-11.8-4.56-11.51-9.75-24.6-14.17-35.75,3.5-12.08,6.38-22.02,8.85-30.52,40.2,10.84,80.58,21.72,122.04,32.9.91,27.29-18.4,41.71-41.51,54.5Z"/>
  <path class="cls-1" d="m947.94,484.67c-.31,1.34-1.42,6.19-2.12,9.2-123.08-33.83-245.27-67.42-368.5-101.3.36-1.51,1.53-6.42,2.26-9.5,122.91,33.9,245.01,67.58,368.35,101.6Z"/>
  <path class="cls-1" d="m906.67,623.04c22.38,23.58,47.16,35.78,78.79,21.52,22.83-10.29,35.7-28.81,34.23-53.47-1.87-31.28-21.13-49.68-53.91-57.09,21.71-3.18,30.13.52,53.47,21.77,9.79-30.63-2-48.22-48.02-71.63,12.68-7.29,28.1-4.15,43.31,8.82,23.17,19.74,28.16,47.8,14.59,81.96,6.72,44.02-9.52,74.06-46.4,85.82-30.49,9.73-63.28-5.8-76.07-37.7Z"/>
  <path class="cls-1" d="m1010.66,477.17c15.42-39.72,5.61-54.12-38.78-57.99,9.38-3.19,18.76-6.38,30.51-10.39.42-6.01.91-13.03,1.49-21.38-8.82-4.08-16.54-7.66-24.07-11.15,27.94-5.39,37.18,6.09,29.69,37.09,22.17,16.67,30.47,44.32,1.16,63.82Z"/>
  <path class="cls-1" d="m499.8,488.29c-11.84,33.69-6.99,40.6,26.83,45.83-22.3,11.84-32.01,5.26-44.58-17.44-16.89-3.92-30.49-12.67-31.94-32.01-1.32-17.64,7.39-29.96,22.84-36.53-3.58,10.23-8.98,20.51-10.5,31.32-1.75,12.45,6.65,20.69,19.17,26.88,4.56-4.53,9.44-9.38,18.17-18.06Z"/>
  <path class="cls-1" d="m774.09,671.78c-2.75-30.53,21.47-58.8,55.12-59.83,30.98-.95,55.9,21.39,58.77,51.38,3.39,35.42-22.02,60.16-50.98,63.25-34.16,3.65-63.94-23.73-62.92-54.8Zm87.99-2.11c.1-17.3-13.94-31.53-31.01-31.43-17.38.1-31.23,13.94-31.32,31.3-.09,16.74,14.51,31.22,31.47,31.2,16.67-.02,30.77-14.22,30.86-31.08Z"/>
  <path class="cls-1" d="m410.43,426.05c.19,26.08-19.12,42.82-42.95,42.6-21.69-.2-40.98-17.83-40.92-42.31.06-24.76,20.05-42.09,42.57-42.07,23.06.03,41.49,18.88,41.29,41.78Zm-18.46.51c.15-12.65-10.54-23.42-23.29-23.47-12.78-.04-23.11,10.33-23.32,23.43-.2,12.42,10.95,23.88,23.24,23.88,12.12,0,23.22-11.32,23.36-23.84Z"/>
  <path class="cls-1" d="m630.72,236c.85,15.63-12.33,32.17-32.8,31.41-19.24-.71-31.44-14.02-31.45-31.78-.01-17.67,12.71-31.99,33.05-32.13,17.48-.12,33.04,16.64,31.2,32.5Zm-13.75-.77c-.05-9.89-8.33-17.9-18.46-17.84-9.72.06-18.3,8.7-18.2,18.34.1,9.56,8.87,17.9,18.66,17.73,10.21-.18,18.05-8.12,18-18.23Z"/>
  <path class="cls-1" d="m101.28,536.53h87.33c17.21,0,31.12,2.34,41.72,7.01,10.59,4.67,19.35,11.38,26.28,20.11,6.92,8.74,11.94,18.9,15.05,30.5,3.11,11.59,4.67,23.88,4.67,36.85,0,20.33-2.32,36.1-6.95,47.3-4.63,11.2-11.05,20.59-19.27,28.15-8.21,7.57-17.04,12.61-26.47,15.12-12.89,3.46-24.56,5.19-35.03,5.19h-87.33v-190.22Zm58.78,43.08v103.93h14.4c12.28,0,21.02-1.36,26.21-4.09,5.19-2.72,9.26-7.48,12.2-14.27,2.94-6.79,4.41-17.8,4.41-33.02,0-20.15-3.29-33.95-9.86-41.39-6.57-7.44-17.47-11.16-32.7-11.16h-14.66Z"/>
  <path class="cls-1" d="m305.65,536.53h52.81v35.94h-52.81v-35.94Zm0,52.42h52.81v137.8h-52.81v-137.8Z"/>
  <path class="cls-1" d="m545.18,670.96h-105.88c.95,8.48,3.24,14.79,6.87,18.94,5.11,5.97,11.77,8.96,19.99,8.96,5.19,0,10.12-1.3,14.79-3.9,2.86-1.64,5.93-4.54,9.22-8.69l52.03,4.8c-7.96,13.84-17.56,23.77-28.8,29.78-11.25,6.01-27.38,9.02-48.4,9.02-18.25,0-32.61-2.58-43.08-7.72-10.47-5.15-19.14-13.32-26.02-24.53-6.87-11.2-10.31-24.37-10.31-39.51,0-21.53,6.9-38.97,20.69-52.29,13.8-13.32,32.85-19.98,57.16-19.98,19.72,0,35.29,2.99,46.71,8.95,11.42,5.97,20.11,14.62,26.08,25.95,5.96,11.33,8.95,26.08,8.95,44.25v5.97Zm-53.72-25.3c-1.04-10.21-3.78-17.51-8.24-21.93-4.46-4.41-10.31-6.62-17.58-6.62-8.39,0-15.1,3.33-20.11,9.99-3.2,4.15-5.23,10.34-6.1,18.55h52.03Z"/>
  <path class="cls-1" d="m571.26,536.53h52.94v190.22h-52.94v-190.22Z"/>
  <rect class="cls-1" x="43.41" y="749.8" width="932.19" height="14"/>
  <path class="cls-1" d="m106.83,809.32c-1.19-1.89-2.65-3.48-4.37-4.76-1.72-1.28-3.61-2.26-5.68-2.93-2.07-.67-4.24-1.01-6.51-1.01-4.14,0-7.69.79-10.66,2.36-2.97,1.57-5.4,3.66-7.3,6.25-1.89,2.59-3.29,5.52-4.19,8.78-.9,3.26-1.35,6.61-1.35,10.05s.45,6.71,1.35,10c.9,3.29,2.3,6.23,4.19,8.82s4.32,4.67,7.3,6.25c2.97,1.57,6.52,2.36,10.66,2.36,2.91,0,5.53-.52,7.86-1.57,2.33-1.05,4.34-2.47,6.03-4.28,1.69-1.81,3.06-3.92,4.11-6.33s1.72-5.02,2.01-7.82h5.94c-.41,3.84-1.31,7.31-2.71,10.4-1.4,3.09-3.2,5.71-5.42,7.86s-4.82,3.81-7.82,4.98c-3,1.16-6.34,1.75-10,1.75-4.89,0-9.19-.89-12.89-2.66-3.7-1.78-6.77-4.15-9.22-7.12-2.45-2.97-4.28-6.41-5.5-10.31-1.22-3.9-1.84-8.01-1.84-12.32s.61-8.42,1.84-12.32c1.22-3.9,3.06-7.35,5.5-10.35,2.45-3,5.52-5.39,9.22-7.17,3.7-1.77,7.99-2.66,12.89-2.66,2.97,0,5.87.44,8.69,1.31,2.82.87,5.39,2.17,7.69,3.89,2.3,1.72,4.22,3.83,5.77,6.33,1.54,2.51,2.52,5.39,2.93,8.65h-5.94c-.52-2.39-1.38-4.53-2.58-6.42Z"/>
  <path class="cls-1" d="m125.39,821.15c.93-1.92,2.2-3.49,3.8-4.72,1.6-1.22,3.48-2.13,5.64-2.71,2.15-.58,4.54-.87,7.16-.87,1.98,0,3.96.19,5.94.57,1.98.38,3.76,1.09,5.33,2.14,1.57,1.05,2.85,2.52,3.85,4.41.99,1.89,1.48,4.35,1.48,7.38v23.94c0,2.21,1.08,3.32,3.23,3.32.64,0,1.22-.12,1.75-.35v4.63c-.64.12-1.21.2-1.7.26-.49.06-1.12.09-1.88.09-1.4,0-2.52-.19-3.36-.57-.85-.38-1.5-.92-1.97-1.62-.47-.7-.77-1.53-.92-2.49-.15-.96-.22-2.02-.22-3.19h-.17c-.99,1.46-2,2.75-3.01,3.89-1.02,1.14-2.16,2.08-3.41,2.84-1.25.76-2.68,1.34-4.28,1.75-1.6.41-3.51.61-5.72.61-2.1,0-4.06-.25-5.9-.74-1.84-.49-3.44-1.28-4.81-2.36-1.37-1.08-2.45-2.45-3.23-4.11-.79-1.66-1.18-3.63-1.18-5.9,0-3.14.7-5.6,2.1-7.38,1.4-1.77,3.25-3.13,5.55-4.06s4.89-1.59,7.78-1.97c2.88-.38,5.81-.74,8.78-1.09,1.16-.11,2.18-.26,3.06-.44.87-.18,1.6-.48,2.18-.92.58-.44,1.03-1.03,1.35-1.79.32-.76.48-1.75.48-2.97,0-1.86-.31-3.39-.92-4.59-.61-1.19-1.46-2.14-2.53-2.84-1.08-.7-2.33-1.18-3.76-1.44-1.43-.26-2.96-.39-4.59-.39-3.49,0-6.35.83-8.56,2.49-2.21,1.66-3.38,4.32-3.49,7.99h-5.5c.18-2.62.73-4.89,1.66-6.81Zm27.52,13.46c-.35.64-1.02,1.11-2.01,1.4-.99.29-1.86.49-2.62.61-2.33.41-4.73.77-7.21,1.09-2.48.32-4.73.8-6.77,1.44-2.04.64-3.71,1.56-5.02,2.75-1.31,1.19-1.97,2.9-1.97,5.11,0,1.4.28,2.64.83,3.71.55,1.08,1.3,2.01,2.23,2.8.93.79,2.01,1.38,3.23,1.79,1.22.41,2.48.61,3.76.61,2.1,0,4.11-.32,6.03-.96,1.92-.64,3.6-1.57,5.02-2.8,1.43-1.22,2.56-2.71,3.41-4.46.84-1.75,1.27-3.73,1.27-5.94v-7.16h-.18Z"/>
  <path class="cls-1" d="m174.66,814.16v10.57h.17c1.4-3.67,3.57-6.5,6.51-8.47,2.94-1.98,6.45-2.88,10.53-2.71v5.5c-2.51-.12-4.78.22-6.81,1-2.04.79-3.8,1.91-5.29,3.36-1.48,1.46-2.64,3.19-3.45,5.2-.82,2.01-1.22,4.21-1.22,6.6v24.03h-5.5v-45.08h5.07Z"/>
  <path class="cls-1" d="m248.66,857.93c-3.14,1.69-6.55,2.53-10.22,2.53-2.68,0-5.17-.38-7.47-1.14-2.3-.76-4.3-1.86-5.98-3.32-1.69-1.46-3.01-3.26-3.97-5.42-.96-2.15-1.44-4.66-1.44-7.51,0-2.21.47-4.25,1.4-6.12.93-1.86,2.14-3.55,3.63-5.07,1.48-1.51,3.13-2.88,4.94-4.11,1.8-1.22,3.58-2.3,5.33-3.23-.87-1.11-1.76-2.23-2.66-3.36-.9-1.14-1.72-2.32-2.45-3.54-.73-1.22-1.34-2.5-1.84-3.84-.49-1.34-.74-2.77-.74-4.28,0-1.92.36-3.65,1.09-5.2.73-1.54,1.72-2.87,2.97-3.98,1.25-1.1,2.71-1.97,4.37-2.58s3.45-.92,5.37-.92,3.71.31,5.37.92c1.66.61,3.11,1.47,4.37,2.58,1.25,1.11,2.24,2.43,2.97,3.98s1.09,3.28,1.09,5.2-.35,3.67-1.05,5.24c-.7,1.57-1.62,3-2.75,4.28-1.14,1.28-2.43,2.46-3.89,3.54-1.46,1.08-2.97,2.11-4.54,3.1l13.63,16.42c.76-1.51,1.25-3.04,1.48-4.59.23-1.54.35-3.51.35-5.9h5.5c0,1.75-.25,4.01-.74,6.77-.5,2.77-1.47,5.49-2.93,8.17l10.48,12.67h-6.9l-6.64-8.13c-2.27,2.85-4.98,5.13-8.13,6.81Zm-15.38-27.08c-1.52.99-2.88,2.13-4.11,3.41-1.22,1.28-2.22,2.7-2.97,4.24-.76,1.54-1.14,3.25-1.14,5.11s.38,3.47,1.14,4.98c.76,1.52,1.76,2.83,3.01,3.93,1.25,1.11,2.69,1.95,4.32,2.53,1.63.58,3.32.87,5.07.87,3.15,0,5.96-.86,8.43-2.58,2.48-1.72,4.59-3.83,6.33-6.33l-15.55-18.87c-1.51.82-3.03,1.72-4.54,2.71Zm1.83-27.3c-1.63,1.37-2.45,3.36-2.45,5.98,0,1.11.23,2.23.7,3.36.47,1.14,1.05,2.24,1.75,3.32.7,1.08,1.46,2.13,2.27,3.15.81,1.02,1.57,1.94,2.27,2.75,1.11-.7,2.23-1.46,3.36-2.27,1.14-.82,2.17-1.73,3.1-2.75.93-1.02,1.69-2.15,2.27-3.41.58-1.25.87-2.63.87-4.15,0-2.62-.82-4.61-2.45-5.98-1.63-1.37-3.58-2.05-5.85-2.05s-4.22.69-5.85,2.05Z"/>
  <path class="cls-1" d="m343.15,809.32c-1.19-1.89-2.65-3.48-4.37-4.76-1.72-1.28-3.61-2.26-5.68-2.93-2.07-.67-4.24-1.01-6.51-1.01-4.14,0-7.69.79-10.66,2.36-2.97,1.57-5.4,3.66-7.3,6.25-1.89,2.59-3.29,5.52-4.19,8.78-.9,3.26-1.35,6.61-1.35,10.05s.45,6.71,1.35,10c.9,3.29,2.3,6.23,4.19,8.82,1.89,2.59,4.32,4.67,7.3,6.25,2.97,1.57,6.52,2.36,10.66,2.36,2.91,0,5.53-.52,7.86-1.57,2.33-1.05,4.34-2.47,6.03-4.28,1.69-1.81,3.06-3.92,4.11-6.33s1.72-5.02,2.01-7.82h5.94c-.41,3.84-1.31,7.31-2.71,10.4-1.4,3.09-3.2,5.71-5.42,7.86-2.21,2.15-4.82,3.81-7.82,4.98-3,1.16-6.34,1.75-10,1.75-4.89,0-9.19-.89-12.89-2.66-3.7-1.78-6.77-4.15-9.22-7.12s-4.28-6.41-5.5-10.31c-1.22-3.9-1.84-8.01-1.84-12.32s.61-8.42,1.84-12.32c1.22-3.9,3.06-7.35,5.5-10.35,2.45-3,5.52-5.39,9.22-7.17,3.7-1.77,7.99-2.66,12.89-2.66,2.97,0,5.87.44,8.69,1.31,2.82.87,5.39,2.17,7.69,3.89,2.3,1.72,4.22,3.83,5.77,6.33,1.54,2.51,2.52,5.39,2.93,8.65h-5.94c-.52-2.39-1.38-4.53-2.58-6.42Z"/>
  <path class="cls-1" d="m361.71,821.15c.93-1.92,2.2-3.49,3.8-4.72,1.6-1.22,3.48-2.13,5.64-2.71,2.15-.58,4.54-.87,7.16-.87,1.98,0,3.96.19,5.94.57,1.98.38,3.76,1.09,5.33,2.14,1.57,1.05,2.85,2.52,3.85,4.41.99,1.89,1.48,4.35,1.48,7.38v23.94c0,2.21,1.08,3.32,3.23,3.32.64,0,1.22-.12,1.75-.35v4.63c-.64.12-1.21.2-1.7.26-.49.06-1.12.09-1.88.09-1.4,0-2.52-.19-3.36-.57-.85-.38-1.5-.92-1.97-1.62-.47-.7-.77-1.53-.92-2.49-.15-.96-.22-2.02-.22-3.19h-.17c-.99,1.46-2,2.75-3.01,3.89-1.02,1.14-2.16,2.08-3.41,2.84-1.25.76-2.68,1.34-4.28,1.75-1.6.41-3.51.61-5.72.61-2.1,0-4.06-.25-5.9-.74-1.84-.49-3.44-1.28-4.81-2.36-1.37-1.08-2.45-2.45-3.23-4.11-.79-1.66-1.18-3.63-1.18-5.9,0-3.14.7-5.6,2.1-7.38,1.4-1.77,3.25-3.13,5.55-4.06s4.89-1.59,7.78-1.97c2.88-.38,5.81-.74,8.78-1.09,1.16-.11,2.18-.26,3.06-.44.87-.18,1.6-.48,2.18-.92.58-.44,1.03-1.03,1.35-1.79.32-.76.48-1.75.48-2.97,0-1.86-.31-3.39-.92-4.59-.61-1.19-1.46-2.14-2.53-2.84-1.08-.7-2.33-1.18-3.76-1.44-1.43-.26-2.96-.39-4.59-.39-3.49,0-6.35.83-8.56,2.49s-3.38,4.32-3.49,7.99h-5.5c.18-2.62.73-4.89,1.66-6.81Zm27.52,13.46c-.35.64-1.02,1.11-2.01,1.4-.99.29-1.86.49-2.62.61-2.33.41-4.73.77-7.21,1.09-2.48.32-4.73.8-6.77,1.44-2.04.64-3.71,1.56-5.02,2.75-1.31,1.19-1.97,2.9-1.97,5.11,0,1.4.28,2.64.83,3.71s1.3,2.01,2.23,2.8c.93.79,2.01,1.38,3.23,1.79,1.22.41,2.48.61,3.76.61,2.1,0,4.11-.32,6.03-.96,1.92-.64,3.6-1.57,5.02-2.8,1.43-1.22,2.56-2.71,3.41-4.46.84-1.75,1.27-3.73,1.27-5.94v-7.16h-.18Z"/>
  <path class="cls-1" d="m410.99,814.16v10.57h.17c1.4-3.67,3.57-6.5,6.51-8.47,2.94-1.98,6.45-2.88,10.53-2.71v5.5c-2.51-.12-4.78.22-6.81,1-2.04.79-3.8,1.91-5.29,3.36-1.48,1.46-2.64,3.19-3.45,5.2-.82,2.01-1.22,4.21-1.22,6.6v24.03h-5.5v-45.08h5.07Z"/>
  <path class="cls-1" d="m438.5,814.16v8.56h.17c1.28-3.14,3.36-5.58,6.25-7.29,2.88-1.72,6.16-2.58,9.83-2.58,3.44,0,6.42.64,8.96,1.92,2.53,1.28,4.64,3.01,6.33,5.2s2.94,4.72,3.76,7.6c.81,2.88,1.22,5.93,1.22,9.13s-.41,6.25-1.22,9.13c-.82,2.88-2.07,5.42-3.76,7.6-1.69,2.18-3.8,3.9-6.33,5.15s-5.52,1.88-8.96,1.88c-1.63,0-3.26-.2-4.89-.61-1.63-.41-3.14-1.02-4.54-1.83s-2.64-1.84-3.71-3.06c-1.08-1.22-1.91-2.65-2.49-4.28h-.18v25.16h-5.5v-61.68h5.07Zm30.18,15.59c-.55-2.3-1.43-4.35-2.62-6.16-1.19-1.8-2.72-3.28-4.59-4.41-1.86-1.14-4.11-1.7-6.73-1.7-3.03,0-5.56.52-7.6,1.57s-3.67,2.45-4.89,4.19c-1.22,1.75-2.08,3.79-2.58,6.12-.49,2.33-.74,4.78-.74,7.34,0,2.33.28,4.65.83,6.95.55,2.3,1.46,4.35,2.71,6.16,1.25,1.81,2.88,3.28,4.89,4.41,2.01,1.14,4.47,1.7,7.38,1.7,2.62,0,4.86-.57,6.73-1.7,1.86-1.14,3.39-2.61,4.59-4.41,1.19-1.8,2.07-3.86,2.62-6.16.55-2.3.83-4.61.83-6.95s-.28-4.64-.83-6.94Z"/>
  <path class="cls-1" d="m487.65,844.35c.55,2.13,1.44,4.03,2.67,5.72,1.22,1.69,2.77,3.09,4.63,4.19,1.86,1.11,4.11,1.66,6.73,1.66,4.02,0,7.17-1.05,9.44-3.15,2.27-2.1,3.84-4.89,4.72-8.39h5.5c-1.16,5.13-3.31,9.09-6.42,11.88-3.12,2.8-7.53,4.19-13.24,4.19-3.55,0-6.63-.63-9.22-1.88-2.59-1.25-4.7-2.97-6.34-5.15-1.63-2.18-2.84-4.72-3.63-7.6-.79-2.88-1.18-5.93-1.18-9.13,0-2.97.39-5.88,1.18-8.74.79-2.85,1.99-5.4,3.63-7.64,1.63-2.24,3.74-4.05,6.34-5.42,2.59-1.37,5.66-2.05,9.22-2.05s6.7.73,9.26,2.18c2.56,1.46,4.64,3.36,6.25,5.72,1.6,2.36,2.75,5.07,3.45,8.13.7,3.06.99,6.16.87,9.3h-34.68c0,1.98.28,4.03.83,6.16Zm27.26-16.82c-.67-1.92-1.62-3.63-2.84-5.11-1.22-1.48-2.71-2.68-4.46-3.58-1.75-.9-3.73-1.35-5.94-1.35s-4.28.45-6.03,1.35c-1.75.9-3.23,2.1-4.46,3.58-1.22,1.49-2.2,3.2-2.93,5.15-.73,1.95-1.21,3.95-1.44,5.98h29.18c-.06-2.1-.42-4.11-1.09-6.03Z"/>
  <path class="cls-1" d="m546.84,814.16v4.63h-9.17v30.4c0,1.81.25,3.22.74,4.24.49,1.02,1.73,1.59,3.71,1.7,1.57,0,3.14-.09,4.72-.26v4.63c-.82,0-1.63.03-2.45.09-.82.06-1.63.09-2.45.09-3.67,0-6.23-.71-7.69-2.14-1.46-1.43-2.16-4.06-2.1-7.91v-30.84h-7.86v-4.63h7.86v-13.54h5.5v13.54h9.17Z"/>
  <path class="cls-1" d="m624.74,808.66c-1.19-1.89-2.65-3.48-4.37-4.76-1.72-1.28-3.61-2.26-5.68-2.93-2.07-.67-4.24-1.01-6.51-1.01-4.14,0-7.69.79-10.66,2.36-2.97,1.57-5.4,3.66-7.3,6.25-1.89,2.59-3.29,5.52-4.19,8.78-.9,3.26-1.35,6.61-1.35,10.05s.45,6.71,1.35,10c.9,3.29,2.3,6.23,4.19,8.82,1.89,2.59,4.32,4.67,7.3,6.25,2.97,1.57,6.52,2.36,10.66,2.36,2.91,0,5.53-.52,7.86-1.57,2.33-1.05,4.34-2.47,6.03-4.28,1.69-1.81,3.06-3.92,4.11-6.33,1.05-2.42,1.72-5.02,2.01-7.82h5.94c-.41,3.84-1.31,7.31-2.71,10.4-1.4,3.09-3.2,5.71-5.42,7.86s-4.82,3.81-7.82,4.98c-3,1.16-6.34,1.75-10,1.75-4.89,0-9.19-.89-12.89-2.66-3.7-1.78-6.77-4.15-9.22-7.12-2.45-2.97-4.28-6.41-5.5-10.31-1.22-3.9-1.84-8.01-1.84-12.32s.61-8.42,1.84-12.32c1.22-3.9,3.06-7.35,5.5-10.35,2.45-3,5.52-5.39,9.22-7.17,3.7-1.77,7.99-2.66,12.89-2.66,2.97,0,5.87.44,8.69,1.31,2.82.87,5.39,2.17,7.69,3.89,2.3,1.72,4.22,3.83,5.77,6.33,1.54,2.51,2.52,5.39,2.93,8.65h-5.94c-.52-2.39-1.38-4.53-2.58-6.42Z"/>
  <path class="cls-1" d="m647.76,796.21v62.38h-5.5v-62.38h5.5Z"/>
  <path class="cls-1" d="m662.39,843.69c.55,2.13,1.44,4.03,2.67,5.72,1.22,1.69,2.77,3.09,4.63,4.19,1.86,1.11,4.11,1.66,6.73,1.66,4.02,0,7.17-1.05,9.44-3.15,2.27-2.1,3.84-4.89,4.72-8.39h5.5c-1.16,5.13-3.31,9.09-6.42,11.88-3.12,2.8-7.53,4.19-13.24,4.19-3.55,0-6.63-.63-9.22-1.88-2.59-1.25-4.7-2.97-6.34-5.15s-2.84-4.72-3.63-7.6c-.79-2.88-1.18-5.93-1.18-9.13,0-2.97.39-5.88,1.18-8.74.79-2.85,1.99-5.4,3.63-7.64,1.63-2.24,3.74-4.05,6.34-5.42,2.59-1.37,5.66-2.05,9.22-2.05s6.7.73,9.26,2.18c2.56,1.46,4.64,3.36,6.25,5.72,1.6,2.36,2.75,5.07,3.45,8.13.7,3.06.99,6.16.87,9.3h-34.68c0,1.98.28,4.03.83,6.16Zm27.26-16.82c-.67-1.92-1.62-3.63-2.84-5.11-1.22-1.48-2.71-2.68-4.46-3.58-1.75-.9-3.73-1.35-5.94-1.35s-4.28.45-6.03,1.35c-1.75.9-3.23,2.1-4.46,3.58-1.22,1.49-2.2,3.2-2.93,5.15-.73,1.95-1.21,3.95-1.44,5.98h29.18c-.06-2.1-.42-4.11-1.09-6.03Z"/>
  <path class="cls-1" d="m704.81,820.5c.93-1.92,2.2-3.49,3.8-4.72,1.6-1.22,3.48-2.13,5.64-2.71,2.15-.58,4.54-.87,7.16-.87,1.98,0,3.96.19,5.94.57,1.98.38,3.76,1.09,5.33,2.14,1.57,1.05,2.85,2.52,3.85,4.41.99,1.89,1.48,4.35,1.48,7.38v23.94c0,2.21,1.08,3.32,3.23,3.32.64,0,1.22-.12,1.75-.35v4.63c-.64.12-1.21.2-1.7.26-.49.06-1.12.09-1.88.09-1.4,0-2.52-.19-3.36-.57-.85-.38-1.5-.92-1.97-1.62-.47-.7-.77-1.53-.92-2.49-.15-.96-.22-2.02-.22-3.19h-.17c-.99,1.46-2,2.75-3.01,3.89-1.02,1.14-2.16,2.08-3.41,2.84-1.25.76-2.68,1.34-4.28,1.75-1.6.41-3.51.61-5.72.61-2.1,0-4.06-.25-5.9-.74-1.84-.49-3.44-1.28-4.81-2.36-1.37-1.08-2.45-2.45-3.23-4.11-.79-1.66-1.18-3.63-1.18-5.9,0-3.14.7-5.6,2.1-7.38,1.4-1.77,3.25-3.13,5.55-4.06s4.89-1.59,7.78-1.97c2.88-.38,5.81-.74,8.78-1.09,1.16-.11,2.18-.26,3.06-.44.87-.18,1.6-.48,2.18-.92.58-.44,1.03-1.03,1.35-1.79.32-.76.48-1.75.48-2.97,0-1.86-.31-3.39-.92-4.59-.61-1.19-1.46-2.14-2.53-2.84-1.08-.7-2.33-1.18-3.76-1.44-1.43-.26-2.96-.39-4.59-.39-3.49,0-6.35.83-8.56,2.49s-3.38,4.32-3.49,7.99h-5.5c.18-2.62.73-4.89,1.66-6.81Zm27.52,13.46c-.35.64-1.02,1.11-2.01,1.4-.99.29-1.86.49-2.62.61-2.33.41-4.73.77-7.21,1.09-2.48.32-4.73.8-6.77,1.44-2.04.64-3.71,1.56-5.02,2.75-1.31,1.19-1.97,2.9-1.97,5.11,0,1.4.28,2.64.83,3.71s1.3,2.01,2.23,2.8c.93.79,2.01,1.38,3.23,1.79,1.22.41,2.48.61,3.76.61,2.1,0,4.11-.32,6.03-.96,1.92-.64,3.6-1.57,5.02-2.8,1.43-1.22,2.56-2.71,3.41-4.46.84-1.75,1.27-3.73,1.27-5.94v-7.16h-.18Z"/>
  <path class="cls-1" d="m754.43,813.51v7.77h.18c1.05-2.74,2.91-4.94,5.59-6.6,2.68-1.66,5.62-2.49,8.82-2.49s5.78.41,7.91,1.22,3.83,1.97,5.11,3.45c1.28,1.49,2.18,3.31,2.71,5.46.52,2.16.79,4.57.79,7.25v29h-5.5v-28.13c0-1.92-.18-3.71-.52-5.37-.35-1.66-.96-3.1-1.84-4.32-.87-1.22-2.05-2.18-3.54-2.88-1.48-.7-3.34-1.05-5.55-1.05s-4.18.39-5.9,1.18c-1.72.79-3.18,1.86-4.37,3.23-1.19,1.37-2.13,3-2.8,4.89-.67,1.89-1.03,3.95-1.09,6.16v26.3h-5.5v-45.08h5.5Z"/>
  <path class="cls-1" d="m801.52,796.21v8.82h-5.5v-8.82h5.5Zm0,17.3v45.08h-5.5v-45.08h5.5Z"/>
  <path class="cls-1" d="m817.51,813.51v7.77h.18c1.05-2.74,2.91-4.94,5.59-6.6,2.68-1.66,5.62-2.49,8.82-2.49s5.78.41,7.91,1.22,3.83,1.97,5.11,3.45c1.28,1.49,2.18,3.31,2.71,5.46.52,2.16.79,4.57.79,7.25v29h-5.5v-28.13c0-1.92-.18-3.71-.52-5.37-.35-1.66-.96-3.1-1.84-4.32-.87-1.22-2.05-2.18-3.54-2.88-1.48-.7-3.34-1.05-5.55-1.05s-4.18.39-5.9,1.18c-1.72.79-3.18,1.86-4.37,3.23-1.19,1.37-2.13,3-2.8,4.89-.67,1.89-1.03,3.95-1.09,6.16v26.3h-5.5v-45.08h5.5Z"/>
  <path class="cls-1" d="m896,863.92c-.73,2.68-1.88,4.95-3.45,6.81-1.57,1.86-3.63,3.29-6.16,4.28-2.53.99-5.64,1.49-9.31,1.49-2.27,0-4.48-.26-6.64-.79-2.15-.52-4.09-1.34-5.81-2.45-1.72-1.11-3.15-2.52-4.28-4.24-1.14-1.72-1.79-3.77-1.97-6.16h5.5c.29,1.69.86,3.1,1.7,4.24s1.86,2.05,3.06,2.75c1.19.7,2.52,1.21,3.97,1.53,1.46.32,2.94.48,4.46.48,5.13,0,8.82-1.46,11.1-4.37,2.27-2.91,3.41-7.11,3.41-12.58v-6.12h-.18c-1.28,2.8-3.16,5.04-5.64,6.73-2.48,1.69-5.37,2.53-8.69,2.53-3.61,0-6.7-.6-9.26-1.79-2.56-1.19-4.68-2.84-6.34-4.94-1.66-2.1-2.87-4.56-3.63-7.38-.76-2.82-1.14-5.84-1.14-9.04s.45-6.01,1.35-8.78c.9-2.77,2.21-5.18,3.93-7.25,1.72-2.07,3.84-3.7,6.38-4.89,2.53-1.19,5.43-1.79,8.69-1.79,1.69,0,3.28.23,4.76.7,1.48.47,2.84,1.12,4.06,1.97,1.22.85,2.31,1.82,3.28,2.93.96,1.11,1.7,2.27,2.23,3.49h.18v-7.77h5.5v41.41c0,3.32-.36,6.32-1.09,9Zm-12.63-12.01c1.81-1.02,3.32-2.36,4.54-4.02,1.22-1.66,2.14-3.57,2.75-5.72.61-2.15.92-4.37.92-6.64s-.26-4.43-.79-6.64c-.52-2.21-1.37-4.22-2.53-6.03-1.16-1.8-2.66-3.26-4.5-4.37-1.84-1.11-4.06-1.66-6.68-1.66s-4.86.54-6.73,1.62c-1.86,1.08-3.41,2.49-4.63,4.24-1.22,1.75-2.11,3.74-2.67,5.98-.55,2.24-.83,4.53-.83,6.86s.29,4.48.87,6.64c.58,2.15,1.49,4.06,2.71,5.72,1.22,1.66,2.77,3,4.63,4.02,1.86,1.02,4.08,1.53,6.64,1.53,2.39,0,4.48-.51,6.29-1.53Z"/>
</svg>