<?xml version="1.0" encoding="UTF-8"?>
<svg id="Capa_1" data-name="Capa 1" xmlns="http://www.w3.org/2000/svg" viewBox="0 0 1080 1080">
  <defs>
    <style>
      .cls-1 {
        fill: none;
        stroke-width: 6px;
      }

      .cls-1, .cls-2 {
        stroke: #0387a5;
        stroke-miterlimit: 10;
      }

      .cls-2 {
        stroke-width: 12.31px;
      }

      .cls-3 {
        fill: #024959;
      }

      .cls-4 {
        fill: #0387a5;
      }

      .cls-5 {
        fill: #024959;
      }

      .cls-6 {
        fill: #c1dff1;
      }
    </style>
  </defs>
  <circle class="cls-1" cx="540" cy="540" r="531.5"/>
  <g>
    <g>
      <path class="cls-4" d="m650.61,485.51c-4.55,14.81-9.1,29.65-13.59,44.28-48.02-6.75-79.6-17.99-88.72-31.92.72-3.35,1.39-7.36,2.44-11.27,4.94-18.43,9.98-36.83,14.56-53.69,111.98,30.82,222.75,61.32,335.12,92.25-8.9,21.37-6.8,50.03-26.4,71.5-29.17-8.81-55.88-16.88-84.62-25.56,3.41-13.23,7.39-28.71,11.37-44.15-50.63-13.97-99.89-27.56-150.16-41.44Zm-22.52-11.61c-13.95-4.11-24.99-7.36-38.02-11.19-2.24,6.35-4.22,11.95-5.36,15.17,14.24,4.87,25.57,8.74,38.01,12.99,1.87-5.9,3.49-11.02,5.37-16.96Z"/>
      <path class="cls-4" d="m721.78,283.37c43.33-37.77,113.45-20.36,121.66,52.16,22.62,1.41,44.13,6.49,57.7,27.48,12.21,18.88,13.68,30.27,7.12,59.38,5.18,13.5,11.55,27.83-.8,42.84-.95-18.98-.78-38.07-18.99-49.86-10.28-6.65-21.18-9-33.46-5.73-2.04,12.68-4.1,25.49-6.16,38.3-1.81.15-3.62.31-5.44.46,1.73-28.09-1.55-54.68-21.93-75.15-7-7.04-15.65-12.45-25.82-20.38-1.63,25.45-8.26,44.39-36.22,54.7,16.39-18.5,27.84-34.34,17.98-55.9-7.72-16.89-20.78-24.41-39.51-24.39,3.83-11.04-2.6-18.2-9.61-24.82-16.84-15.91-45.33-20.57-67.03-9.83-21.98,10.87-34.1,29.24-34.72,53.85-.21,8.44,2.45,16.94,4.26,28.34,35.6-24.44,68.84-27.94,101.26.15-37.86-18.87-72.26-11.37-103.7,15.56-3.9-12.3-7.8-21.86-9.84-31.8-2.15-10.5-2.53-21.36-3.7-32.21-22.89-1.96-34.84,7.54-43.21,35.67,2.56,3.41,5.49,7.3,9.89,13.16-8.6-2.12-14.6-3.38-20.47-5.09-22.78-6.62-42.43-.85-57.11,17.23-14.76,18.18-15.7,38.6-4.35,59.21,1.62,2.94,3.3,5.84,5.46,9.67-20.1-13.02-27.65-37.4-19.69-61.02,9.93-29.45,33.97-42.06,71.1-38.29,8.22-11.37,13.99-24.81,24.19-31.93,10.34-7.22,25.05-8.2,40.07-12.56,21.05-36.64,56.73-50.22,101.05-29.21Zm27.63,36.3c17.39,1.73,32.3,10.2,41.79,24.89,11.81,5.01,22.38,9.5,32.96,13.99,10.29-29.91,1.57-56.53-23.61-72.85-23.07-14.96-51.33-13.28-70.95,3.98,6.35,9.62,12.67,19.2,19.81,30Zm154.6,90.98c1.7-38.34-25.38-63.16-64.49-56.53-1.76,4.93-3.72,10.46-5.41,15.21,6.95,12.29,13.19,23.32,17.35,30.69,19.39,3.92,35.5,7.19,52.55,10.63Z"/>
      <path class="cls-4" d="m737.52,591.61c-5.52-.49-11.47-1.01-19.8-1.74-13.34,49.85-26.69,99.79-40.74,152.29-10.92-3.96-20.22-7.33-30-10.88,14.34-48.85,28.87-98.31,43.49-148.12-8.76-4.43-13.92-7.05-21.13-10.7-4.13-10.43-8.84-22.3-12.84-32.41,3.18-10.95,5.79-19.95,8.02-27.67,36.44,9.82,73.04,19.69,110.62,29.82.82,24.74-16.68,37.81-37.63,49.4Z"/>
      <path class="cls-4" d="m909.76,489.85c-.28,1.21-1.29,5.61-1.92,8.34-111.56-30.67-222.31-61.11-334.01-91.82.33-1.37,1.39-5.82,2.05-8.61,111.41,30.73,222.08,61.26,333.88,92.09Z"/>
      <path class="cls-4" d="m872.35,615.26c20.29,21.37,42.75,32.43,71.42,19.5,20.7-9.33,32.36-26.12,31.03-48.47-1.69-28.35-19.16-45.03-48.86-51.74,19.68-2.88,27.31.47,48.46,19.73,8.87-27.77-1.82-43.71-43.53-64.93,11.49-6.61,25.47-3.76,39.26,7.99,21,17.89,25.52,43.33,13.22,74.29,6.09,39.9-8.63,67.13-42.06,77.79-27.64,8.82-57.36-5.26-68.95-34.17Z"/>
      <path class="cls-4" d="m966.61,483.05c13.98-36,5.08-49.05-35.15-52.56,8.5-2.89,17-5.79,27.66-9.41.38-5.45.83-11.81,1.36-19.38-8-3.7-14.99-6.94-21.82-10.1,25.33-4.88,33.7,5.52,26.91,33.62,20.1,15.11,27.62,40.17,1.05,57.85Z"/>
      <path class="cls-4" d="m503.56,493.13c-10.73,30.54-6.34,36.8,24.32,41.54-20.21,10.74-29.02,4.77-40.41-15.81-15.3-3.56-27.63-11.49-28.95-29.01-1.2-15.99,6.7-27.15,20.7-33.11-3.25,9.27-8.14,18.59-9.52,28.39-1.58,11.28,6.03,18.76,17.38,24.37,4.13-4.11,8.55-8.5,16.47-16.37Z"/>
    </g>
    <path class="cls-6" d="m752.18,659.45c-2.49-27.67,19.46-53.29,49.97-54.23,28.08-.86,50.67,19.38,53.27,46.57,3.07,32.1-19.96,54.53-46.21,57.33-30.97,3.3-57.95-21.51-57.03-49.67Zm79.76-1.91c.09-15.68-12.64-28.58-28.1-28.49-15.76.09-28.31,12.63-28.39,28.37-.08,15.18,13.15,28.3,28.52,28.28,15.11-.02,27.89-12.89,27.97-28.17Z"/>
    <path class="cls-6" d="m422.55,436.71c.17,23.64-17.33,38.82-38.93,38.61-19.66-.18-37.14-16.16-37.09-38.35.06-22.44,18.17-38.15,38.59-38.13,20.9.02,37.61,17.11,37.43,37.87Zm-16.74.47c.14-11.46-9.56-21.23-21.11-21.27-11.58-.04-20.95,9.37-21.14,21.23-.18,11.26,9.92,21.65,21.07,21.65,10.99,0,21.04-10.26,21.18-21.61Z"/>
    <path class="cls-6" d="m622.23,264.45c.77,14.17-11.18,29.16-29.73,28.47-17.44-.64-28.5-12.7-28.51-28.81-.01-16.01,11.52-29,29.96-29.13,15.84-.11,29.95,15.08,28.28,29.46Zm-12.46-.69c-.04-8.97-7.55-16.23-16.73-16.17-8.81.05-16.59,7.89-16.5,16.63.09,8.67,8.04,16.22,16.91,16.07,9.25-.16,16.36-7.36,16.32-16.52Z"/>
    <g>
      <path class="cls-3" d="m142.34,536.86h79.16c15.6,0,28.21,2.12,37.81,6.35,9.6,4.23,17.54,10.31,23.82,18.23,6.27,7.92,10.82,17.13,13.64,27.64,2.82,10.51,4.23,21.64,4.23,33.4,0,18.42-2.1,32.72-6.3,42.87s-10.02,18.66-17.47,25.52c-7.45,6.86-15.44,11.43-23.99,13.7-11.68,3.13-22.27,4.7-31.75,4.7h-79.16v-172.42Zm53.28,39.05v94.21h13.05c11.13,0,19.05-1.23,23.76-3.7,4.7-2.47,8.39-6.78,11.06-12.94,2.66-6.15,4-16.13,4-29.93,0-18.27-2.98-30.77-8.94-37.52-5.96-6.74-15.84-10.11-29.64-10.11h-13.29Z"/>
      <path class="cls-3" d="m327.58,536.86h47.87v32.58h-47.87v-32.58Zm0,47.52h47.87v124.9h-47.87v-124.9Z"/>
      <path class="cls-3" d="m544.69,658.7h-95.97c.86,7.69,2.94,13.41,6.23,17.17,4.63,5.41,10.67,8.12,18.12,8.12,4.7,0,9.17-1.18,13.4-3.53,2.59-1.49,5.37-4.11,8.35-7.88l47.16,4.35c-7.21,12.54-15.91,21.54-26.11,26.99-10.2,5.45-24.82,8.17-43.87,8.17-16.54,0-29.56-2.34-39.05-7-9.49-4.67-17.35-12.07-23.58-22.23-6.23-10.15-9.35-22.09-9.35-35.81,0-19.52,6.25-35.32,18.76-47.4,12.51-12.07,29.78-18.11,51.81-18.11,17.88,0,31.99,2.71,42.34,8.11,10.35,5.41,18.23,13.25,23.64,23.52,5.41,10.27,8.11,23.64,8.11,40.11v5.41Zm-48.69-22.94c-.94-9.25-3.43-15.88-7.47-19.87-4.04-4-9.35-6-15.94-6-7.61,0-13.69,3.02-18.23,9.06-2.9,3.76-4.74,9.37-5.53,16.82h47.16Z"/>
      <path class="cls-3" d="m568.34,536.86h47.99v172.42h-47.99v-172.42Z"/>
    </g>
    <line class="cls-2" x1="89.88" y1="736.51" x2="934.83" y2="736.51"/>
    <g>
      <path class="cls-5" d="m147.37,784.11c-1.08-1.72-2.4-3.15-3.96-4.32-1.56-1.16-3.27-2.05-5.15-2.65-1.87-.61-3.84-.91-5.9-.91-3.75,0-6.97.71-9.66,2.14-2.69,1.43-4.9,3.31-6.61,5.66-1.72,2.35-2.98,5-3.8,7.96-.82,2.96-1.23,5.99-1.23,9.11s.41,6.09,1.23,9.07c.82,2.98,2.09,5.65,3.8,8,1.72,2.35,3.92,4.24,6.61,5.66,2.69,1.42,5.91,2.14,9.66,2.14,2.64,0,5.02-.48,7.13-1.43,2.11-.95,3.93-2.24,5.46-3.88,1.53-1.64,2.77-3.55,3.72-5.74s1.56-4.55,1.82-7.09h5.39c-.37,3.48-1.19,6.63-2.45,9.42-1.27,2.8-2.9,5.17-4.91,7.13s-4.37,3.46-7.09,4.51c-2.72,1.06-5.74,1.58-9.07,1.58-4.43,0-8.33-.8-11.68-2.41-3.35-1.61-6.14-3.76-8.35-6.45s-3.88-5.81-4.99-9.34c-1.11-3.54-1.66-7.26-1.66-11.17s.55-7.63,1.66-11.17c1.11-3.54,2.77-6.66,4.99-9.38,2.22-2.72,5-4.88,8.35-6.49,3.35-1.61,7.25-2.41,11.68-2.41,2.69,0,5.32.4,7.88,1.19,2.56.79,4.88,1.97,6.97,3.52,2.09,1.56,3.83,3.47,5.23,5.74,1.4,2.27,2.28,4.88,2.65,7.84h-5.39c-.48-2.16-1.25-4.1-2.34-5.82Z"/>
      <path class="cls-5" d="m164.19,794.84c.85-1.74,1.99-3.17,3.44-4.28,1.45-1.11,3.15-1.93,5.11-2.45,1.95-.53,4.12-.79,6.49-.79,1.79,0,3.59.17,5.39.51,1.79.34,3.41.99,4.83,1.94,1.43.95,2.59,2.28,3.49,4,.9,1.72,1.35,3.95,1.35,6.69v21.7c0,2.01.98,3.01,2.93,3.01.58,0,1.11-.11,1.58-.32v4.2c-.58.11-1.1.19-1.54.24-.45.05-1.02.08-1.7.08-1.27,0-2.28-.17-3.05-.51-.77-.34-1.36-.83-1.78-1.47-.42-.63-.7-1.39-.83-2.26-.13-.87-.2-1.83-.2-2.89h-.16c-.9,1.32-1.81,2.49-2.73,3.52-.93,1.03-1.95,1.89-3.09,2.57-1.14.69-2.43,1.21-3.88,1.58-1.45.37-3.18.55-5.19.55-1.9,0-3.68-.22-5.35-.67-1.66-.45-3.12-1.16-4.36-2.14-1.24-.98-2.22-2.22-2.93-3.72-.71-1.5-1.07-3.29-1.07-5.35,0-2.85.63-5.08,1.9-6.69,1.27-1.61,2.94-2.84,5.03-3.68s4.43-1.44,7.05-1.78c2.61-.34,5.27-.67,7.96-.99,1.06-.1,1.98-.24,2.77-.4.79-.16,1.45-.44,1.98-.83.53-.4.94-.94,1.23-1.62.29-.69.44-1.58.44-2.69,0-1.69-.28-3.08-.83-4.16-.55-1.08-1.32-1.94-2.3-2.57-.98-.63-2.11-1.07-3.41-1.31-1.29-.24-2.68-.36-4.16-.36-3.17,0-5.75.75-7.76,2.26-2.01,1.5-3.06,3.92-3.17,7.25h-4.99c.16-2.37.66-4.43,1.5-6.18Zm24.94,12.2c-.32.58-.92,1-1.82,1.27-.9.26-1.69.45-2.38.55-2.11.37-4.29.7-6.53.99-2.25.29-4.29.73-6.14,1.31-1.85.58-3.37,1.41-4.55,2.49-1.19,1.08-1.78,2.63-1.78,4.63,0,1.27.25,2.39.75,3.37s1.18,1.82,2.02,2.53c.84.71,1.82,1.25,2.93,1.62,1.11.37,2.24.55,3.41.55,1.9,0,3.72-.29,5.46-.87,1.74-.58,3.26-1.42,4.55-2.53,1.29-1.11,2.32-2.45,3.09-4.04.76-1.58,1.15-3.38,1.15-5.39v-6.49h-.16Z"/>
      <path class="cls-5" d="m208.86,788.51v9.58h.16c1.27-3.33,3.23-5.89,5.9-7.68,2.67-1.79,5.85-2.61,9.54-2.45v4.99c-2.27-.11-4.33.2-6.18.91-1.85.71-3.44,1.73-4.79,3.05-1.35,1.32-2.39,2.89-3.13,4.71-.74,1.82-1.11,3.81-1.11,5.98v21.78h-4.99v-40.86h4.59Z"/>
      <path class="cls-5" d="m275.93,828.18c-2.85,1.53-5.94,2.3-9.26,2.3-2.43,0-4.69-.34-6.77-1.03-2.09-.68-3.89-1.69-5.42-3.01-1.53-1.32-2.73-2.96-3.6-4.91-.87-1.95-1.31-4.22-1.31-6.81,0-2.01.42-3.85,1.27-5.54.84-1.69,1.94-3.22,3.29-4.59,1.35-1.37,2.84-2.61,4.47-3.72,1.64-1.11,3.25-2.09,4.83-2.93-.79-1-1.6-2.02-2.41-3.05-.82-1.03-1.56-2.1-2.22-3.21-.66-1.11-1.21-2.27-1.66-3.48-.45-1.21-.67-2.51-.67-3.88,0-1.74.33-3.31.99-4.71.66-1.4,1.56-2.6,2.69-3.6,1.13-1,2.45-1.78,3.96-2.34s3.13-.83,4.87-.83,3.36.28,4.87.83c1.5.55,2.82,1.33,3.96,2.34,1.13,1,2.03,2.2,2.69,3.6s.99,2.97.99,4.71-.32,3.33-.95,4.75c-.63,1.43-1.47,2.72-2.49,3.88-1.03,1.16-2.21,2.23-3.52,3.21-1.32.98-2.69,1.91-4.12,2.81l12.35,14.89c.68-1.37,1.13-2.76,1.35-4.16.21-1.4.32-3.18.32-5.34h4.99c0,1.58-.22,3.63-.67,6.14-.45,2.51-1.33,4.98-2.65,7.4l9.5,11.48h-6.26l-6.02-7.36c-2.06,2.59-4.51,4.65-7.36,6.18Zm-13.94-24.55c-1.37.9-2.61,1.93-3.72,3.09-1.11,1.16-2.01,2.44-2.69,3.84-.69,1.4-1.03,2.94-1.03,4.63s.34,3.14,1.03,4.51c.68,1.37,1.6,2.56,2.73,3.56,1.13,1,2.44,1.77,3.92,2.3,1.48.53,3.01.79,4.59.79,2.85,0,5.4-.78,7.64-2.34,2.24-1.56,4.16-3.47,5.74-5.74l-14.1-17.1c-1.37.74-2.74,1.56-4.12,2.45Zm1.66-24.75c-1.48,1.24-2.22,3.05-2.22,5.42,0,1,.21,2.02.63,3.05.42,1.03.95,2.03,1.58,3.01.63.98,1.32,1.93,2.06,2.85.74.92,1.43,1.76,2.06,2.49,1-.63,2.02-1.32,3.05-2.06,1.03-.74,1.97-1.57,2.81-2.49.84-.92,1.53-1.95,2.06-3.09.53-1.13.79-2.39.79-3.76,0-2.38-.74-4.18-2.22-5.42-1.48-1.24-3.25-1.86-5.31-1.86s-3.83.62-5.31,1.86Z"/>
      <path class="cls-5" d="m361.57,784.11c-1.08-1.72-2.4-3.15-3.96-4.32-1.56-1.16-3.27-2.05-5.15-2.65-1.87-.61-3.84-.91-5.9-.91-3.75,0-6.97.71-9.66,2.14-2.69,1.43-4.9,3.31-6.61,5.66-1.72,2.35-2.98,5-3.8,7.96-.82,2.96-1.23,5.99-1.23,9.11s.41,6.09,1.23,9.07c.82,2.98,2.09,5.65,3.8,8,1.72,2.35,3.92,4.24,6.61,5.66,2.69,1.42,5.91,2.14,9.66,2.14,2.64,0,5.02-.48,7.13-1.43,2.11-.95,3.93-2.24,5.46-3.88,1.53-1.64,2.77-3.55,3.72-5.74.95-2.19,1.56-4.55,1.82-7.09h5.39c-.37,3.48-1.19,6.63-2.45,9.42-1.27,2.8-2.9,5.17-4.91,7.13s-4.37,3.46-7.09,4.51c-2.72,1.06-5.74,1.58-9.07,1.58-4.43,0-8.33-.8-11.68-2.41-3.35-1.61-6.14-3.76-8.35-6.45s-3.88-5.81-4.99-9.34c-1.11-3.54-1.66-7.26-1.66-11.17s.55-7.63,1.66-11.17c1.11-3.54,2.77-6.66,4.99-9.38,2.22-2.72,5-4.88,8.35-6.49,3.35-1.61,7.25-2.41,11.68-2.41,2.69,0,5.32.4,7.88,1.19,2.56.79,4.88,1.97,6.97,3.52,2.09,1.56,3.83,3.47,5.23,5.74,1.4,2.27,2.28,4.88,2.65,7.84h-5.39c-.48-2.16-1.25-4.1-2.34-5.82Z"/>
      <path class="cls-5" d="m378.4,794.84c.85-1.74,1.99-3.17,3.44-4.28,1.45-1.11,3.15-1.93,5.11-2.45,1.95-.53,4.12-.79,6.49-.79,1.79,0,3.59.17,5.39.51,1.79.34,3.41.99,4.83,1.94,1.43.95,2.59,2.28,3.49,4,.9,1.72,1.35,3.95,1.35,6.69v21.7c0,2.01.98,3.01,2.93,3.01.58,0,1.11-.11,1.58-.32v4.2c-.58.11-1.1.19-1.54.24-.45.05-1.02.08-1.7.08-1.27,0-2.28-.17-3.05-.51-.77-.34-1.36-.83-1.78-1.47-.42-.63-.7-1.39-.83-2.26-.13-.87-.2-1.83-.2-2.89h-.16c-.9,1.32-1.81,2.49-2.73,3.52-.93,1.03-1.95,1.89-3.09,2.57-1.14.69-2.43,1.21-3.88,1.58-1.45.37-3.18.55-5.19.55-1.9,0-3.68-.22-5.35-.67-1.66-.45-3.12-1.16-4.36-2.14-1.24-.98-2.22-2.22-2.93-3.72-.71-1.5-1.07-3.29-1.07-5.35,0-2.85.63-5.08,1.9-6.69,1.27-1.61,2.94-2.84,5.03-3.68s4.43-1.44,7.05-1.78c2.61-.34,5.27-.67,7.96-.99,1.06-.1,1.98-.24,2.77-.4.79-.16,1.45-.44,1.98-.83.53-.4.94-.94,1.23-1.62.29-.69.44-1.58.44-2.69,0-1.69-.28-3.08-.83-4.16-.55-1.08-1.32-1.94-2.3-2.57-.98-.63-2.11-1.07-3.41-1.31-1.29-.24-2.68-.36-4.16-.36-3.17,0-5.75.75-7.76,2.26s-3.06,3.92-3.17,7.25h-4.99c.16-2.37.66-4.43,1.5-6.18Zm24.94,12.2c-.32.58-.92,1-1.82,1.27-.9.26-1.69.45-2.38.55-2.11.37-4.29.7-6.53.99-2.25.29-4.29.73-6.14,1.31-1.85.58-3.37,1.41-4.55,2.49-1.19,1.08-1.78,2.63-1.78,4.63,0,1.27.25,2.39.75,3.37s1.18,1.82,2.02,2.53c.84.71,1.82,1.25,2.93,1.62,1.11.37,2.24.55,3.41.55,1.9,0,3.72-.29,5.46-.87,1.74-.58,3.26-1.42,4.55-2.53,1.29-1.11,2.32-2.45,3.09-4.04.76-1.58,1.15-3.38,1.15-5.39v-6.49h-.16Z"/>
      <path class="cls-5" d="m423.06,788.51v9.58h.16c1.27-3.33,3.23-5.89,5.9-7.68,2.67-1.79,5.85-2.61,9.54-2.45v4.99c-2.27-.11-4.33.2-6.18.91-1.85.71-3.44,1.73-4.79,3.05-1.35,1.32-2.39,2.89-3.13,4.71-.74,1.82-1.11,3.81-1.11,5.98v21.78h-4.99v-40.86h4.59Z"/>
      <path class="cls-5" d="m448,788.51v7.76h.16c1.16-2.85,3.05-5.05,5.66-6.61,2.61-1.56,5.58-2.34,8.91-2.34,3.11,0,5.82.58,8.12,1.74,2.3,1.16,4.21,2.73,5.74,4.71s2.67,4.28,3.41,6.89c.74,2.61,1.11,5.37,1.11,8.27s-.37,5.66-1.11,8.28c-.74,2.61-1.87,4.91-3.41,6.89s-3.44,3.54-5.74,4.67-5,1.7-8.12,1.7c-1.48,0-2.96-.19-4.43-.55-1.48-.37-2.85-.92-4.12-1.66s-2.39-1.66-3.37-2.77c-.98-1.11-1.73-2.4-2.26-3.88h-.16v22.81h-4.99v-55.91h4.59Zm27.36,14.14c-.5-2.09-1.29-3.95-2.37-5.58-1.08-1.64-2.47-2.97-4.16-4-1.69-1.03-3.72-1.54-6.1-1.54-2.74,0-5.04.48-6.89,1.43s-3.33,2.22-4.43,3.8c-1.11,1.58-1.89,3.43-2.34,5.54-.45,2.11-.67,4.33-.67,6.65,0,2.11.25,4.21.75,6.3.5,2.09,1.32,3.95,2.45,5.58,1.13,1.64,2.61,2.97,4.43,4,1.82,1.03,4.05,1.54,6.69,1.54,2.38,0,4.41-.51,6.1-1.54,1.69-1.03,3.08-2.36,4.16-4,1.08-1.64,1.87-3.5,2.37-5.58.5-2.09.75-4.18.75-6.3s-.25-4.21-.75-6.29Z"/>
      <path class="cls-5" d="m492.55,815.86c.5,1.93,1.31,3.66,2.42,5.19,1.11,1.53,2.51,2.8,4.2,3.8,1.69,1,3.72,1.5,6.1,1.5,3.64,0,6.49-.95,8.55-2.85,2.06-1.9,3.48-4.43,4.28-7.6h4.99c-1.06,4.65-3,8.24-5.82,10.77-2.82,2.53-6.82,3.8-12,3.8-3.22,0-6.01-.57-8.35-1.7-2.35-1.13-4.26-2.69-5.74-4.67-1.48-1.98-2.57-4.28-3.29-6.89-.71-2.61-1.07-5.37-1.07-8.28,0-2.69.36-5.33,1.07-7.92.71-2.59,1.81-4.9,3.29-6.93,1.48-2.03,3.39-3.67,5.74-4.91,2.35-1.24,5.13-1.86,8.35-1.86s6.07.66,8.39,1.98c2.32,1.32,4.21,3.05,5.66,5.19,1.45,2.14,2.49,4.59,3.13,7.36.63,2.77.9,5.58.79,8.43h-31.44c0,1.8.25,3.66.75,5.58Zm24.71-15.24c-.61-1.74-1.47-3.29-2.57-4.63-1.11-1.35-2.45-2.43-4.04-3.25-1.58-.82-3.38-1.23-5.39-1.23s-3.88.41-5.46,1.23c-1.58.82-2.93,1.9-4.04,3.25-1.11,1.35-1.99,2.9-2.65,4.67-.66,1.77-1.1,3.58-1.31,5.42h26.45c-.05-1.9-.38-3.72-.99-5.46Z"/>
      <path class="cls-5" d="m546.2,788.51v4.2h-8.32v27.56c0,1.64.22,2.92.67,3.84.45.92,1.57,1.44,3.37,1.54,1.42,0,2.85-.08,4.28-.24v4.2c-.74,0-1.48.03-2.22.08-.74.05-1.48.08-2.22.08-3.33,0-5.65-.65-6.97-1.94-1.32-1.29-1.95-3.68-1.9-7.17v-27.95h-7.13v-4.2h7.13v-12.27h4.99v12.27h8.32Z"/>
    </g>
    <g>
      <path class="cls-5" d="m616.81,783.52c-1.08-1.72-2.4-3.15-3.96-4.32-1.56-1.16-3.27-2.05-5.15-2.65-1.87-.61-3.84-.91-5.9-.91-3.75,0-6.97.71-9.66,2.14-2.69,1.43-4.9,3.31-6.61,5.66-1.72,2.35-2.98,5-3.8,7.96-.82,2.96-1.23,5.99-1.23,9.11s.41,6.09,1.23,9.07c.82,2.98,2.09,5.65,3.8,8,1.72,2.35,3.92,4.24,6.61,5.66,2.69,1.42,5.91,2.14,9.66,2.14,2.64,0,5.02-.48,7.13-1.43,2.11-.95,3.93-2.24,5.46-3.88,1.53-1.64,2.77-3.55,3.72-5.74s1.56-4.55,1.82-7.09h5.39c-.37,3.48-1.19,6.63-2.45,9.42-1.27,2.8-2.9,5.17-4.91,7.13s-4.37,3.46-7.09,4.51c-2.72,1.06-5.74,1.58-9.07,1.58-4.43,0-8.33-.8-11.68-2.41-3.35-1.61-6.14-3.76-8.35-6.45-2.22-2.69-3.88-5.81-4.99-9.34-1.11-3.54-1.66-7.26-1.66-11.17s.55-7.63,1.66-11.17c1.11-3.54,2.77-6.66,4.99-9.38,2.22-2.72,5-4.88,8.35-6.49,3.35-1.61,7.25-2.41,11.68-2.41,2.69,0,5.32.4,7.88,1.19,2.56.79,4.88,1.97,6.97,3.52,2.09,1.56,3.83,3.47,5.23,5.74,1.4,2.27,2.28,4.88,2.65,7.84h-5.39c-.48-2.16-1.25-4.1-2.34-5.82Z"/>
      <path class="cls-5" d="m637.67,772.23v56.54h-4.99v-56.54h4.99Z"/>
      <path class="cls-5" d="m650.94,815.27c.5,1.93,1.31,3.66,2.42,5.19,1.11,1.53,2.51,2.8,4.2,3.8,1.69,1,3.72,1.5,6.1,1.5,3.64,0,6.49-.95,8.55-2.85,2.06-1.9,3.48-4.43,4.28-7.6h4.99c-1.06,4.65-3,8.24-5.82,10.77-2.82,2.53-6.82,3.8-12,3.8-3.22,0-6.01-.57-8.35-1.7-2.35-1.13-4.26-2.69-5.74-4.67s-2.57-4.28-3.29-6.89c-.71-2.61-1.07-5.37-1.07-8.28,0-2.69.36-5.33,1.07-7.92.71-2.59,1.81-4.9,3.29-6.93,1.48-2.03,3.39-3.67,5.74-4.91,2.35-1.24,5.13-1.86,8.35-1.86s6.07.66,8.39,1.98c2.32,1.32,4.21,3.05,5.66,5.19,1.45,2.14,2.49,4.59,3.13,7.36.63,2.77.9,5.58.79,8.43h-31.44c0,1.8.25,3.66.75,5.58Zm24.71-15.24c-.61-1.74-1.47-3.29-2.57-4.63-1.11-1.35-2.45-2.43-4.04-3.25-1.58-.82-3.38-1.23-5.39-1.23s-3.88.41-5.46,1.23c-1.58.82-2.93,1.9-4.04,3.25-1.11,1.35-1.99,2.9-2.65,4.67-.66,1.77-1.1,3.58-1.31,5.42h26.45c-.05-1.9-.38-3.72-.99-5.46Z"/>
      <path class="cls-5" d="m689.38,794.25c.85-1.74,1.99-3.17,3.44-4.28,1.45-1.11,3.15-1.93,5.11-2.45,1.95-.53,4.12-.79,6.49-.79,1.79,0,3.59.17,5.39.51,1.79.34,3.41.99,4.83,1.94,1.43.95,2.59,2.28,3.49,4,.9,1.72,1.35,3.95,1.35,6.69v21.7c0,2.01.98,3.01,2.93,3.01.58,0,1.11-.11,1.58-.32v4.2c-.58.11-1.1.19-1.54.24-.45.05-1.02.08-1.7.08-1.27,0-2.28-.17-3.05-.51-.77-.34-1.36-.83-1.78-1.47-.42-.63-.7-1.39-.83-2.26-.13-.87-.2-1.83-.2-2.89h-.16c-.9,1.32-1.81,2.49-2.73,3.52-.93,1.03-1.95,1.89-3.09,2.57-1.14.69-2.43,1.21-3.88,1.58-1.45.37-3.18.55-5.19.55-1.9,0-3.68-.22-5.35-.67-1.66-.45-3.12-1.16-4.36-2.14-1.24-.98-2.22-2.22-2.93-3.72-.71-1.5-1.07-3.29-1.07-5.35,0-2.85.63-5.08,1.9-6.69,1.27-1.61,2.94-2.84,5.03-3.68s4.43-1.44,7.05-1.78c2.61-.34,5.27-.67,7.96-.99,1.06-.1,1.98-.24,2.77-.4.79-.16,1.45-.44,1.98-.83.53-.4.94-.94,1.23-1.62.29-.69.44-1.58.44-2.69,0-1.69-.28-3.08-.83-4.16-.55-1.08-1.32-1.94-2.3-2.57-.98-.63-2.11-1.07-3.41-1.31-1.29-.24-2.68-.36-4.16-.36-3.17,0-5.75.75-7.76,2.26s-3.06,3.92-3.17,7.25h-4.99c.16-2.37.66-4.43,1.5-6.18Zm24.94,12.2c-.32.58-.92,1-1.82,1.27-.9.26-1.69.45-2.38.55-2.11.37-4.29.7-6.53.99-2.25.29-4.29.73-6.14,1.31-1.85.58-3.37,1.41-4.55,2.49-1.19,1.08-1.78,2.63-1.78,4.63,0,1.27.25,2.39.75,3.37s1.18,1.82,2.02,2.53c.84.71,1.82,1.25,2.93,1.62,1.11.37,2.24.55,3.41.55,1.9,0,3.72-.29,5.46-.87,1.74-.58,3.26-1.42,4.55-2.53,1.29-1.11,2.32-2.45,3.09-4.04.76-1.58,1.15-3.38,1.15-5.39v-6.49h-.16Z"/>
      <path class="cls-5" d="m734.36,787.91v7.05h.16c.95-2.48,2.64-4.47,5.07-5.98,2.43-1.5,5.09-2.26,8-2.26s5.24.37,7.17,1.11c1.93.74,3.47,1.78,4.63,3.13,1.16,1.35,1.98,3,2.45,4.95.48,1.95.71,4.15.71,6.57v26.29h-4.99v-25.5c0-1.74-.16-3.37-.48-4.87-.32-1.5-.87-2.81-1.66-3.92-.79-1.11-1.86-1.98-3.21-2.61-1.35-.63-3.02-.95-5.03-.95s-3.79.36-5.35,1.07c-1.56.71-2.88,1.69-3.96,2.93-1.08,1.24-1.93,2.72-2.53,4.43-.61,1.72-.94,3.58-.99,5.58v23.84h-4.99v-40.86h4.99Z"/>
      <path class="cls-5" d="m777.04,772.23v8h-4.99v-8h4.99Zm0,15.68v40.86h-4.99v-40.86h4.99Z"/>
      <path class="cls-5" d="m791.53,787.91v7.05h.16c.95-2.48,2.64-4.47,5.07-5.98,2.43-1.5,5.09-2.26,8-2.26s5.24.37,7.17,1.11c1.93.74,3.47,1.78,4.63,3.13,1.16,1.35,1.98,3,2.45,4.95.48,1.95.71,4.15.71,6.57v26.29h-4.99v-25.5c0-1.74-.16-3.37-.48-4.87s-.87-2.81-1.66-3.92c-.79-1.11-1.86-1.98-3.21-2.61-1.35-.63-3.02-.95-5.03-.95s-3.79.36-5.35,1.07c-1.56.71-2.88,1.69-3.96,2.93-1.08,1.24-1.93,2.72-2.53,4.43-.61,1.72-.94,3.58-.99,5.58v23.84h-4.99v-40.86h4.99Z"/>
      <path class="cls-5" d="m862.68,833.6c-.66,2.43-1.7,4.49-3.13,6.18s-3.29,2.98-5.58,3.88c-2.3.9-5.11,1.35-8.43,1.35-2.06,0-4.06-.24-6.02-.71-1.95-.48-3.71-1.21-5.27-2.22-1.56-1-2.85-2.28-3.88-3.84-1.03-1.56-1.62-3.42-1.78-5.58h4.99c.26,1.53.78,2.81,1.54,3.84s1.69,1.86,2.77,2.49c1.08.63,2.28,1.1,3.6,1.39,1.32.29,2.67.44,4.04.44,4.65,0,8-1.32,10.06-3.96,2.06-2.64,3.09-6.44,3.09-11.4v-5.54h-.16c-1.16,2.53-2.86,4.57-5.11,6.1-2.24,1.53-4.87,2.3-7.88,2.3-3.27,0-6.07-.54-8.39-1.62-2.32-1.08-4.24-2.57-5.74-4.48-1.5-1.9-2.6-4.13-3.29-6.69-.69-2.56-1.03-5.29-1.03-8.2s.41-5.45,1.23-7.96c.82-2.51,2.01-4.7,3.56-6.57,1.56-1.87,3.48-3.35,5.78-4.43,2.3-1.08,4.92-1.62,7.88-1.62,1.53,0,2.97.21,4.32.63,1.35.42,2.57,1.02,3.68,1.78,1.11.77,2.1,1.65,2.97,2.65.87,1,1.54,2.06,2.02,3.17h.16v-7.05h4.99v37.54c0,3.01-.33,5.73-.99,8.16Zm-11.44-10.89c1.64-.92,3.01-2.14,4.12-3.64,1.11-1.5,1.94-3.23,2.49-5.19s.83-3.96.83-6.02-.24-4.01-.71-6.02c-.48-2.01-1.24-3.83-2.3-5.46-1.06-1.64-2.41-2.96-4.08-3.96-1.66-1-3.68-1.5-6.06-1.5s-4.41.49-6.1,1.47c-1.69.98-3.09,2.26-4.2,3.84-1.11,1.58-1.92,3.39-2.42,5.42-.5,2.03-.75,4.11-.75,6.22s.26,4.06.79,6.02c.53,1.95,1.35,3.68,2.45,5.19,1.11,1.5,2.51,2.72,4.2,3.64,1.69.92,3.7,1.38,6.02,1.38,2.17,0,4.06-.46,5.7-1.38Z"/>
    </g>
  </g>
</svg>